<?xml version="1.0" encoding="utf-8"?>
	<!DOCTYPE svg PUBLIC "-//W3C//DTD SVG 1.1//EN" "http://www.w3.org/Graphics/SVG/1.1/DTD/svg11.dtd"><svg version="1.1" 
	xmlns="http://www.w3.org/2000/svg" 
	xmlns:xlink="http://www.w3.org/1999/xlink" x="0px" y="0px" viewBox="0 0 100 77.049" enable-background="new 0 0 100 77.049" xml:space="preserve">
	<path fill="#E07A72" d="M99.957,36.065c-0.859,22.779-19.59,40.984-42.58,40.984
	c-11.67,0-22.237-4.696-29.932-12.297h-15.15C5.504,64.752,0,59.25,0,52.458c0-6.789,5.504-12.293,12.295-12.293h2.861
	c-0.181-1.347-0.285-2.718-0.342-4.1h-0.06v-4.917H100v4.917H99.957z M19.731,36.065c0.137,3.117,0.632,6.143,1.479,9.018h-8.915
	c-4.075,0-7.377,3.301-7.377,7.375c0,4.075,3.302,7.379,7.377,7.379h17.227c6.895,7.554,16.82,12.295,27.854,12.295
	c20.272,0,36.806-16.002,37.663-36.065L19.731,36.065L19.731,36.065z"></path><path fill="#E07A72" d="M63.936,21.311v-2.458c0-3.357-2.476-5.737-5.737-5.737c-0.14,0.005-0.683,0-0.82,0
	c-5.974,0-10.656-4.736-10.656-10.657V0h4.917v2.458c0,3.205,2.482,5.738,5.739,5.738c0.14-0.006,0.681,0,0.82,0
	c5.719,0,10.228,4.002,10.614,9.836h0.039v3.278L63.936,21.311L63.936,21.311z"></path><path fill="#E07A72" d="M50,21.311c-7.377,0-11.454-4.735-11.454-10.656h-0.021V8.196h4.918v2.458h0.02
	c0,3.204,3.281,5.737,6.537,5.737h2.46v4.918H50V21.311z"></path><circle fill="#E07A72" cx="13.114" cy="52.459" r="4.098"></circle></svg>