<svg data-v-423bf9ae="" xmlns="http://www.w3.org/2000/svg" viewBox="0 0 460.2279145616549 60" class="font"><!----><!----><!----><g data-v-423bf9ae="" id="23b3b586-c503-4c6c-97cc-9d7a35c2a86c" fill="black" transform="matrix(5.6980053264473165,0,0,5.6980053264473165,-4.444439814228957,-22.735042022120943)"><path d="M4.80 14.52C6.45 14.52 7.64 13.66 8.27 12.26L7.18 11.61C6.82 12.61 6.01 13.30 4.80 13.30C3.21 13.30 2.24 12.11 2.24 10.21L2.24 8.72C2.24 6.82 3.21 5.63 4.80 5.63C5.98 5.63 6.73 6.26 7.10 7.22L8.22 6.58C7.59 5.18 6.45 4.41 4.80 4.41C2.31 4.41 0.78 6.20 0.78 9.46C0.78 12.73 2.31 14.52 4.80 14.52ZM12.71 14.52C14.69 14.52 16.02 13.03 16.02 10.72C16.02 8.41 14.69 6.93 12.71 6.93C10.74 6.93 9.41 8.41 9.41 10.72C9.41 13.03 10.74 14.52 12.71 14.52ZM12.71 13.40C11.58 13.40 10.79 12.68 10.79 11.27L10.79 10.18C10.79 8.76 11.58 8.05 12.71 8.05C13.85 8.05 14.63 8.76 14.63 10.18L14.63 11.27C14.63 12.68 13.85 13.40 12.71 13.40ZM18.10 14.35L19.40 14.35L19.40 8.20L20.93 8.20L20.93 7.10L19.40 7.10L19.40 5.10L20.93 5.10L20.93 3.99L19.80 3.99C18.66 3.99 18.10 4.69 18.10 5.75L18.10 7.10L16.94 7.10L16.94 8.20L18.10 8.20ZM22.75 14.35L24.05 14.35L24.05 8.20L25.58 8.20L25.58 7.10L24.05 7.10L24.05 5.10L25.58 5.10L25.58 3.99L24.44 3.99C23.31 3.99 22.75 4.69 22.75 5.75L22.75 7.10L21.59 7.10L21.59 8.20L22.75 8.20ZM29.71 14.52C31.07 14.52 32.12 13.89 32.62 12.95L31.78 12.24C31.39 12.98 30.73 13.41 29.82 13.41C28.52 13.41 27.78 12.54 27.78 11.34L27.78 11.05L32.89 11.05L32.89 10.50C32.89 8.47 31.74 6.93 29.71 6.93C27.69 6.93 26.42 8.43 26.42 10.72C26.42 13.02 27.69 14.52 29.71 14.52ZM29.71 7.98C30.80 7.98 31.50 8.79 31.50 10.00L31.50 10.14L27.78 10.14L27.78 10.04C27.78 8.85 28.57 7.98 29.71 7.98ZM37.44 14.52C38.79 14.52 39.84 13.89 40.35 12.95L39.51 12.24C39.12 12.98 38.46 13.41 37.55 13.41C36.25 13.41 35.50 12.54 35.50 11.34L35.50 11.05L40.61 11.05L40.61 10.50C40.61 8.47 39.47 6.93 37.44 6.93C35.42 6.93 34.15 8.43 34.15 10.72C34.15 13.02 35.42 14.52 37.44 14.52ZM37.44 7.98C38.53 7.98 39.23 8.79 39.23 10.00L39.23 10.14L35.50 10.14L35.50 10.04C35.50 8.85 36.30 7.98 37.44 7.98ZM45.81 14.35L50.39 14.35C51.83 14.35 52.92 13.13 52.92 11.54C52.92 9.90 51.67 9.30 50.93 9.25L50.93 9.17C51.65 9.09 52.58 8.55 52.58 7.10C52.58 5.57 51.58 4.58 49.97 4.58L45.81 4.58ZM47.17 9.91L49.98 9.91C50.90 9.91 51.46 10.39 51.46 11.30L51.46 11.79C51.46 12.70 50.90 13.17 49.98 13.17L47.17 13.17ZM47.17 5.75L49.76 5.75C50.61 5.75 51.13 6.22 51.13 7.03L51.13 7.49C51.13 8.30 50.61 8.76 49.76 8.76L47.17 8.76ZM56.20 14.35L56.20 9.59C56.20 8.88 56.90 8.40 58.10 8.40L58.74 8.40L58.74 7.10L58.31 7.10C57.15 7.10 56.50 7.77 56.27 8.48L56.20 8.48L56.20 7.10L54.89 7.10L54.89 14.35ZM62.85 14.52C64.20 14.52 65.25 13.89 65.76 12.95L64.92 12.24C64.53 12.98 63.87 13.41 62.96 13.41C61.66 13.41 60.91 12.54 60.91 11.34L60.91 11.05L66.02 11.05L66.02 10.50C66.02 8.47 64.88 6.93 62.85 6.93C60.83 6.93 59.56 8.43 59.56 10.72C59.56 13.02 60.83 14.52 62.85 14.52ZM62.85 7.98C63.94 7.98 64.64 8.79 64.64 10.00L64.64 10.14L60.91 10.14L60.91 10.04C60.91 8.85 61.71 7.98 62.85 7.98ZM73.82 14.35L73.82 13.24L73.01 13.24L73.01 9.42C73.01 7.85 71.97 6.93 70.17 6.93C68.82 6.93 67.97 7.56 67.54 8.34L68.32 9.06C68.70 8.44 69.24 8.02 70.10 8.02C71.19 8.02 71.71 8.57 71.71 9.53L71.71 10.19L70.34 10.19C68.26 10.19 67.24 10.95 67.24 12.35C67.24 13.68 68.12 14.52 69.64 14.52C70.67 14.52 71.44 14.04 71.74 13.15L71.81 13.15C71.90 13.85 72.28 14.35 73.08 14.35ZM69.93 13.47C69.12 13.47 68.60 13.09 68.60 12.42L68.60 12.14C68.60 11.47 69.13 11.10 70.32 11.10L71.71 11.10L71.71 12.22C71.71 12.95 70.95 13.47 69.93 13.47ZM75.38 14.35L76.68 14.35L76.68 11.84L77.71 10.74L79.98 14.35L81.55 14.35L78.64 9.90L81.21 7.10L79.67 7.10L77.78 9.17L76.75 10.44L76.68 10.44L76.68 3.99L75.38 3.99Z"></path></g><!----><!----></svg>